<svg id="Layer_1" data-name="Layer 1" xmlns="http://www.w3.org/2000/svg" viewBox="0 0 648.69 80.37"><defs><style>.cls-1{fill:#4683b5;}.cls-2{font-size:22px;fill:#407cb1;font-family:Arial-BoldMT, Arial;font-weight:700;}.cls-3{letter-spacing:-0.02em;}</style></defs><path class="cls-1" d="M602.77,16.68l2.5-1.2a8.63,8.63,0,0,1,.9-2.2l-.9-2.6,2-2,2.6.9a8.43,8.43,0,0,1,2.2-.9l1.2-2.4h2.8l1.2,2.5a8.43,8.43,0,0,1,2.2.9l2.6-.9,2,2-.8,2.6a8.63,8.63,0,0,1,.9,2.2l2.5,1.2v2.8l-2.5,1.2a8.78,8.78,0,0,1-.9,2.2l.9,2.6-2,2-2.6-.9a8.78,8.78,0,0,1-2.2.9l-1.2,2.5h-2.8l-1.2-2.4a8.78,8.78,0,0,1-2.2-.9l-2.6.9-2-2,.9-2.6a9.09,9.09,0,0,1-1-2.2l-2.5-1.2ZM615.37,40l-.1-3,2.5-1.2a8.63,8.63,0,0,1,.9-2.2l-.9-2.6,2-2,2.6.9a8.43,8.43,0,0,1,2.2-.9l1.2-2.5h2.9l1.2,2.5a8.43,8.43,0,0,1,2.2.9l2.6-.9,2,2-.9,2.6a8.63,8.63,0,0,1,.9,2.2l2.5,1.2v2.8l-2.5,1.2a8.78,8.78,0,0,1-.9,2.2l.9,2.6-2,2-2.6-.8a8.78,8.78,0,0,1-2.2.9l-1.2,2.5h-2.8l-1.1-2.4a8.78,8.78,0,0,1-2.2-.9L620,48l-2-2,.8-2.6a8.78,8.78,0,0,1-.9-2.2l-2.5-1.2Zm-32.1,10.7h4.4v6a12.25,12.25,0,0,0,3.4,8.5,11.92,11.92,0,0,0,8.4,3.5h4.9v12H636V55.37a30.46,30.46,0,0,0,11.8-24.2A30.07,30.07,0,1,0,587.7,29c0,.73,0,1.47,0,2.2v.5l-6.9,12C578.37,47.37,580.67,50.37,583.27,50.68Z"/><text class="cls-2" transform="translate(1.37 29.62)"><tspan xml:space="preserve">Cognitive Workload in Human-Computer Interaction</tspan><tspan x="0" y="26.4">Paper Library</tspan></text></svg>