<?xml version="1.0" encoding="utf-8"?>
<!-- Generator: Adobe Illustrator 25.3.1, SVG Export Plug-In . SVG Version: 6.00 Build 0)  -->
<svg version="1.1" id="Layer_1" xmlns="http://www.w3.org/2000/svg" xmlns:xlink="http://www.w3.org/1999/xlink" x="0px" y="0px"
	 viewBox="0 0 638 80" style="enable-background:new 0 0 638 80;" xml:space="preserve">
<style type="text/css">
	.st0{fill:#4683B5;}
	.st1{font-family:'Calibri-Bold';}
	.st2{font-size:26px;}
	.st3{letter-spacing:-1;}
</style>
<text transform="matrix(1 0 0 1 -3.002930e-02 33.9399)" class="st0 st1 st2">Cogniti</text>
<text transform="matrix(1 0 0 1 75.6 33.9399)" class="st0 st1 st2">v</text>
<text transform="matrix(1 0 0 1 87.66 33.9399)" class="st0 st1 st2">e </text>
<text transform="matrix(1 0 0 1 106.62 33.9399)" class="st0 st1 st2 st3">W</text>
<text transform="matrix(1 0 0 1 129.17 33.9399)" class="st0 st1 st2">orkload in Human-Compu</text>
<text transform="matrix(1 0 0 1 407.16 33.9399)" class="st0 st1 st2">t</text>
<text transform="matrix(1 0 0 1 415.86 33.9399)" class="st0 st1 st2">er I</text>
<text transform="matrix(1 0 0 1 451 33.9399)" class="st0 st1 st2">n</text>
<text transform="matrix(1 0 0 1 464.71 33.9399)" class="st0 st1 st2">t</text>
<text transform="matrix(1 0 0 1 473.4 33.9399)" class="st0 st1 st2">e</text>
<text transform="matrix(1 0 0 1 486.49 33.9399)" class="st0 st1 st2">r</text>
<text transform="matrix(1 0 0 1 495.16 33.9399)" class="st0 st1 st2">action</text>
<text transform="matrix(1 0 0 1 -3.002930e-02 65.14)" class="st0 st1 st2">P</text>
<text transform="matrix(1 0 0 1 13.3 65.14)" class="st0 st1 st2">aper Lib</text>
<text transform="matrix(1 0 0 1 99.63 65.14)" class="st0 st1 st2">r</text>
<text transform="matrix(1 0 0 1 108.3 65.14)" class="st0 st1 st2">a</text>
<text transform="matrix(1 0 0 1 121.13 65.14)" class="st0 st1 st2">r</text>
<text transform="matrix(1 0 0 1 130.49 65.14)" class="st0 st1 st2">y</text>
<path class="st0" d="M592.8,16.3l2.5-1.2c0.2-0.8,0.5-1.5,0.9-2.2l-0.9-2.6l2-2l2.6,0.9c0.7-0.4,1.4-0.7,2.2-0.9l1.2-2.4h2.8
	l1.2,2.5c0.8,0.2,1.5,0.5,2.2,0.9l2.6-0.9l2,2l-0.8,2.6c0.4,0.7,0.7,1.4,0.9,2.2l2.5,1.2v2.8l-2.5,1.2c-0.2,0.8-0.5,1.5-0.9,2.2
	l0.9,2.6l-2,2l-2.6-0.9c-0.7,0.4-1.4,0.7-2.2,0.9l-1.2,2.5h-2.8l-1.2-2.4c-0.8-0.2-1.5-0.5-2.2-0.9l-2.6,0.9l-2-2l0.9-2.6
	c-0.4-0.7-0.8-1.4-1-2.2l-2.5-1.2L592.8,16.3z M605.4,39.6l-0.1-3l2.5-1.2c0.2-0.8,0.5-1.5,0.9-2.2l-0.9-2.6l2-2l2.6,0.9
	c0.7-0.4,1.4-0.7,2.2-0.9l1.2-2.5h2.9l1.2,2.5c0.8,0.2,1.5,0.5,2.2,0.9l2.6-0.9l2,2l-0.9,2.6c0.4,0.7,0.7,1.4,0.9,2.2l2.5,1.2v2.8
	l-2.5,1.2c-0.2,0.8-0.5,1.5-0.9,2.2l0.9,2.6l-2,2l-2.6-0.8c-0.7,0.4-1.4,0.7-2.2,0.9l-1.2,2.5h-2.8l-1.1-2.4
	c-0.8-0.2-1.5-0.5-2.2-0.9l-2.6,0.9l-2-2l0.8-2.6c-0.4-0.7-0.7-1.4-0.9-2.2L605.4,39.6L605.4,39.6z M573.3,50.3h4.4v6
	c0,3.2,1.2,6.2,3.4,8.5c2.2,2.2,5.2,3.5,8.4,3.5h4.9v12H626V55c7.5-5.8,11.8-14.7,11.8-24.2c0.6-16.6-12.4-30.5-29-31.1
	s-30.5,12.4-31.1,29c0,0.7,0,1.5,0,2.2v0.5l-6.9,12C568.4,47,570.7,50,573.3,50.3z"/>
</svg>
