<svg id="Layer_1" data-name="Layer 1" xmlns="http://www.w3.org/2000/svg" viewBox="0 0 638 80"><defs><style>.cls-1{font-size:26px;font-family:Calibri-Bold, Calibri;font-weight:700;}.cls-1,.cls-8{fill:#0086ff;}.cls-2{letter-spacing:-0.01em;}.cls-3{letter-spacing:-0.04em;}.cls-4{letter-spacing:-0.01em;}.cls-5{letter-spacing:-0.02em;}.cls-6{letter-spacing:-0.02em;}.cls-7{letter-spacing:0em;}</style></defs><text class="cls-1" transform="translate(-0.03 33.94)">Cogniti<tspan class="cls-2" x="75.63" y="0">v</tspan><tspan x="87.69" y="0">e </tspan><tspan class="cls-3" x="106.65" y="0">W</tspan><tspan x="129.2" y="0">orkload in Human-Compu</tspan><tspan class="cls-4" x="407.19" y="0">t</tspan><tspan x="415.89" y="0">er I</tspan><tspan class="cls-2" x="451.03" y="0">n</tspan><tspan class="cls-4" x="464.74" y="0">t</tspan><tspan x="473.43" y="0">e</tspan><tspan class="cls-5" x="486.52" y="0">r</tspan><tspan x="495.19" y="0">action</tspan><tspan class="cls-6" x="0" y="31.2">P</tspan><tspan x="13.33" y="31.2">aper Lib</tspan><tspan class="cls-5" x="99.66" y="31.2">r</tspan><tspan x="108.33" y="31.2">a</tspan><tspan class="cls-7" x="121.16" y="31.2">r</tspan><tspan x="130.52" y="31.2">y</tspan></text><path class="cls-8" d="M592.77,16.31l2.5-1.2a8.49,8.49,0,0,1,.9-2.2l-.9-2.6,2-2,2.6.9a8.49,8.49,0,0,1,2.2-.9l1.2-2.4h2.8l1.2,2.5a8.49,8.49,0,0,1,2.2.9l2.6-.9,2,2-.8,2.6a8.49,8.49,0,0,1,.9,2.2l2.5,1.2v2.8l-2.5,1.2a8.49,8.49,0,0,1-.9,2.2l.9,2.6-2,2-2.6-.9a8.49,8.49,0,0,1-2.2.9l-1.2,2.5h-2.8l-1.2-2.4a8.49,8.49,0,0,1-2.2-.9l-2.6.9-2-2,.9-2.6a8.75,8.75,0,0,1-1-2.2l-2.5-1.2Zm12.6,23.3-.1-3,2.5-1.2a8.49,8.49,0,0,1,.9-2.2l-.9-2.6,2-2,2.6.9a8.49,8.49,0,0,1,2.2-.9l1.2-2.5h2.9l1.2,2.5a8.49,8.49,0,0,1,2.2.9l2.6-.9,2,2-.9,2.6a8.49,8.49,0,0,1,.9,2.2l2.5,1.2v2.8l-2.5,1.2a8.49,8.49,0,0,1-.9,2.2l.9,2.6-2,2-2.6-.8a8.49,8.49,0,0,1-2.2.9l-1.2,2.5h-2.8l-1.1-2.4a8.49,8.49,0,0,1-2.2-.9l-2.6.9-2-2,.8-2.6a8.49,8.49,0,0,1-.9-2.2l-2.5-1.2Zm-32.1,10.7h4.4v6a12.2,12.2,0,0,0,3.4,8.5,11.88,11.88,0,0,0,8.4,3.5h4.9v12H626V55a30.46,30.46,0,0,0,11.8-24.2,30.07,30.07,0,1,0-60.1,0v.5l-6.9,12C568.37,47,570.67,50,573.27,50.31Z"/></svg>